# xmcd
#
# Track frame offsets: 
#        150
#        16917
#        36861
#        52877
#        73912
#        86518
#        104263
#        122262
#        139233
#        154274
#
# Disc length: 2366 seconds
#
# Revision: 0
# Processed by: cddbd v1.5.2PL0 Copyright (c) Steve Scherf et al.
# Submitted via: ExactAudioCopy v0.95b4
#
DISCID=7d093c0a
DTITLE=Grey DeLisle - Iron Flowers
DYEAR=2005
DGENRE=Country
TTITLE0=Bohemian Rhapsody
TTITLE1=Joanna
TTITLE2=Right Now
TTITLE3=Who Made You King
TTITLE4=God's Got It
TTITLE5=The Bloody Bucket
TTITLE6=Iron Flowers
TTITLE7=Blueheart
TTITLE8=Sweet Little Bluebird
TTITLE9=Inside Texas
EXTD=
EXTT0=
EXTT1=
EXTT2=
EXTT3=
EXTT4=
EXTT5=
EXTT6=
EXTT7=
EXTT8=
EXTT9=
PLAYORDER=
